<svg
    xmlns="http://www.w3.org/2000/svg"
    width="28"
    height="28"
    viewBox="0 0 27 27"
    fill="none"
  >
    <path
      fill-rule="evenodd"
      clip-rule="evenodd"
      d="M13.5 2.53125C10.5909 2.53125 7.80096 3.68688 5.74392 5.74392C3.68688 7.80096 2.53125 10.5909 2.53125 13.5C2.53125 16.4091 3.68688 19.199 5.74392 21.2561C7.80096 23.3131 10.5909 24.4688 13.5 24.4688C16.4091 24.4688 19.199 23.3131 21.2561 21.2561C23.3131 19.199 24.4688 16.4091 24.4688 13.5C24.4688 10.5909 23.3131 7.80096 21.2561 5.74392C19.199 3.68688 16.4091 2.53125 13.5 2.53125ZM0 13.5C0 9.91958 1.42232 6.4858 3.95406 3.95406C6.4858 1.42232 9.91958 0 13.5 0C17.0804 0 20.5142 1.42232 23.0459 3.95406C25.5777 6.4858 27 9.91958 27 13.5C27 17.0804 25.5777 20.5142 23.0459 23.0459C20.5142 25.5777 17.0804 27 13.5 27C9.91958 27 6.4858 25.5777 3.95406 23.0459C1.42232 20.5142 0 17.0804 0 13.5ZM15.1875 18.5625C15.1875 19.0101 15.0097 19.4393 14.6932 19.7557C14.3768 20.0722 13.9476 20.25 13.5 20.25C13.0524 20.25 12.6232 20.0722 12.3068 19.7557C11.9903 19.4393 11.8125 19.0101 11.8125 18.5625C11.8125 18.1149 11.9903 17.6857 12.3068 17.3693C12.6232 17.0528 13.0524 16.875 13.5 16.875C13.9476 16.875 14.3768 17.0528 14.6932 17.3693C15.0097 17.6857 15.1875 18.1149 15.1875 18.5625ZM11.6775 10.2684C11.8142 9.99844 11.9981 9.76388 12.2513 9.59681C12.4959 9.43312 12.8773 9.28125 13.5 9.28125C13.9725 9.28125 14.4332 9.42806 14.7454 9.66094C14.8873 9.75987 15.0021 9.8928 15.0793 10.0476C15.1566 10.2023 15.1938 10.374 15.1875 10.5469C15.1875 10.8456 15.12 10.9924 15.0576 11.0835C14.9301 11.2504 14.7714 11.3909 14.5901 11.4969C14.4619 11.583 14.3235 11.6657 14.1547 11.7686L14.1429 11.7754C13.9643 11.8808 13.7882 11.9906 13.6147 12.1044C13.155 12.3947 12.758 12.7739 12.447 13.2199C12.2652 13.4992 12.2009 13.8389 12.2681 14.1653C12.3352 14.4917 12.5284 14.7785 12.8057 14.9634C13.083 15.1482 13.422 15.2162 13.7491 15.1527C14.0762 15.0891 14.3651 14.8991 14.553 14.6239C14.6799 14.4571 14.8381 14.3167 15.0187 14.2104C15.1628 14.1169 15.3091 14.0269 15.4575 13.9404L15.4676 13.9337C15.6246 13.8375 15.8119 13.7261 15.9958 13.6046C16.3704 13.3532 16.8176 13.0056 17.1636 12.4875C17.5247 11.9475 17.7188 11.3029 17.7188 10.5469C17.7188 9.26437 17.1112 8.27213 16.2624 7.63594C15.4594 7.05407 14.4916 6.74369 13.5 6.75C12.4352 6.75 11.5509 7.02 10.8472 7.48913C10.1503 7.95488 9.69975 8.56575 9.41456 9.13781C9.33879 9.28667 9.29324 9.44905 9.28053 9.6156C9.26781 9.78215 9.28819 9.94957 9.34049 10.1082C9.39279 10.2668 9.47597 10.4135 9.58524 10.5399C9.69451 10.6662 9.82771 10.7697 9.97715 10.8443C10.1266 10.9189 10.2893 10.9632 10.456 10.9746C10.6226 10.986 10.7899 10.9643 10.9481 10.9108C11.1063 10.8573 11.2524 10.7729 11.3778 10.6627C11.5033 10.5525 11.6041 10.4185 11.6775 10.2684Z"
      fill="#F54DA3"
    />
  </svg>